<?xml version="1.0" standalone="no"?><!DOCTYPE svg PUBLIC "-//W3C//DTD SVG 1.1//EN" "http://www.w3.org/Graphics/SVG/1.1/DTD/svg11.dtd"><svg t="1744459326757" class="icon" viewBox="0 0 1024 1024" version="1.1" xmlns="http://www.w3.org/2000/svg" p-id="15677" width="23" height="23" xmlns:xlink="http://www.w3.org/1999/xlink"><path d="M768 128a128 128 0 0 1 128 128v512a128 128 0 0 1-128 128H256a128 128 0 0 1-128-128V256a128 128 0 0 1 128-128h512z m-65.28 212.053333L426.666667 616.106667l-105.386667-105.386667a32 32 0 0 0-45.226667 45.226667l128 128a32 32 0 0 0 45.226667 0l298.666667-298.666667a32 32 0 0 0-45.226667-45.226667z" fill="#212121" p-id="15678"></path></svg>